<svg width="291" height="112" viewBox="0 0 291 112" fill="none" xmlns="http://www.w3.org/2000/svg">
<path d="M20.9731 90V38.0154H3.04737V27.2599H50.9091V38.0154H32.5352V90H20.9731ZM72.9535 90.8963C68.2331 90.8963 64.0205 89.8506 60.3159 87.7593C56.6112 85.6082 53.6834 82.6803 51.5323 78.9757C49.4409 75.271 48.3953 71.0585 48.3953 66.338C48.3953 61.6176 49.4409 57.405 51.5323 53.7004C53.6834 49.9957 56.6112 47.0978 60.3159 45.0064C64.0205 42.8553 68.2331 41.7798 72.9535 41.7798C77.6142 41.7798 81.7969 42.8553 85.5015 45.0064C89.2062 47.0978 92.1042 49.9957 94.1955 53.7004C96.3466 57.405 97.4221 61.6176 97.4221 66.338C97.4221 71.0585 96.3466 75.271 94.1955 78.9757C92.1042 82.6803 89.2062 85.6082 85.5015 87.7593C81.7969 89.8506 77.6142 90.8963 72.9535 90.8963ZM72.9535 81.1268C75.5229 81.1268 77.8233 80.4994 79.8549 79.2446C81.8865 77.93 83.4699 76.1673 84.6052 73.9565C85.8003 71.6859 86.3679 69.1464 86.3082 66.338C86.3679 63.4699 85.8003 60.9304 84.6052 58.7196C83.4699 56.449 81.8865 54.6863 79.8549 53.4315C77.8233 52.1767 75.5229 51.5493 72.9535 51.5493C70.3842 51.5493 68.0538 52.2066 65.9625 53.5211C63.9309 54.7759 62.3475 56.5386 61.2122 58.8092C60.0769 61.0201 59.5092 63.5297 59.5092 66.338C59.5092 69.1464 60.0769 71.6859 61.2122 73.9565C62.3475 76.1673 63.9309 77.93 65.9625 79.2446C68.0538 80.4994 70.3842 81.1268 72.9535 81.1268Z" fill="#0D459A"/>
<path d="M126.376 90.8963C122.134 90.8963 118.34 89.8506 114.994 87.7593C111.707 85.6082 109.078 82.7102 107.106 79.0653C105.194 75.3607 104.238 71.1182 104.238 66.338C104.238 61.6176 105.194 57.405 107.106 53.7004C109.018 49.9957 111.618 47.0978 114.904 45.0064C118.25 42.8553 122.014 41.7798 126.197 41.7798C128.468 41.7798 130.649 42.1383 132.74 42.8553C134.891 43.5724 136.803 44.5583 138.476 45.8131C140.209 47.0081 141.553 48.3526 142.51 49.8464C143.525 51.3402 144.063 52.8937 144.123 54.5071L141.165 54.8656V23.6748H152.189V90H141.524L141.255 78.9757L143.406 79.1549C143.346 80.589 142.838 81.9932 141.882 83.3675C140.926 84.7418 139.641 85.9966 138.028 87.1319C136.475 88.2672 134.682 89.1933 132.65 89.9104C130.619 90.5676 128.527 90.8963 126.376 90.8963ZM128.438 81.5749C131.007 81.5749 133.278 80.9475 135.25 79.6927C137.221 78.3782 138.745 76.5856 139.821 74.315C140.956 71.9846 141.524 69.3257 141.524 66.338C141.524 63.3504 140.956 60.7213 139.821 58.4507C138.745 56.1801 137.221 54.3876 135.25 53.073C133.278 51.7584 131.007 51.1012 128.438 51.1012C125.809 51.1012 123.508 51.7584 121.536 53.073C119.624 54.3876 118.101 56.1801 116.965 58.4507C115.83 60.7213 115.262 63.3504 115.262 66.338C115.262 69.3257 115.83 71.9846 116.965 74.315C118.101 76.5856 119.624 78.3782 121.536 79.6927C123.508 80.9475 125.809 81.5749 128.438 81.5749ZM262.802 90.8963C258.081 90.8963 253.869 89.8506 250.164 87.7593C246.459 85.6082 243.532 82.6803 241.38 78.9757C239.289 75.271 238.243 71.0585 238.243 66.338C238.243 61.6176 239.289 57.405 241.38 53.7004C243.532 49.9957 246.459 47.0978 250.164 45.0064C253.869 42.8553 258.081 41.7798 262.802 41.7798C267.462 41.7798 271.645 42.8553 275.35 45.0064C279.054 47.0978 281.952 49.9957 284.044 53.7004C286.195 57.405 287.27 61.6176 287.27 66.338C287.27 71.0585 286.195 75.271 284.044 78.9757C281.952 82.6803 279.054 85.6082 275.35 87.7593C271.645 89.8506 267.462 90.8963 262.802 90.8963ZM262.802 81.1268C265.371 81.1268 267.671 80.4994 269.703 79.2446C271.735 77.93 273.318 76.1673 274.453 73.9565C275.648 71.6859 276.216 69.1464 276.156 66.338C276.216 63.4699 275.648 60.9304 274.453 58.7196C273.318 56.449 271.735 54.6863 269.703 53.4315C267.671 52.1767 265.371 51.5493 262.802 51.5493C260.232 51.5493 257.902 52.2066 255.811 53.5211C253.779 54.7759 252.196 56.5386 251.06 58.8092C249.925 61.0201 249.357 63.5297 249.357 66.338C249.357 69.1464 249.925 71.6859 251.06 73.9565C252.196 76.1673 253.779 77.93 255.811 79.2446C257.902 80.4994 260.232 81.1268 262.802 81.1268Z" fill="#F4860A"/>
<path d="M186.842 90.8963C181.883 90.8963 177.491 89.8805 173.667 87.8489C169.902 85.7576 166.945 82.9193 164.793 79.3342C162.702 75.6893 161.656 71.5066 161.656 66.7862C161.656 63.0815 162.254 59.7055 163.449 56.6581C164.644 53.6108 166.317 50.9817 168.468 48.7708C170.619 46.5002 173.159 44.7674 176.087 43.5724C179.074 42.3176 182.301 41.6902 185.767 41.6902C188.933 41.6902 191.831 42.2877 194.461 43.4827C197.149 44.6778 199.48 46.321 201.452 48.4123C203.423 50.4439 204.917 52.8937 205.933 55.7619C207.009 58.5702 207.516 61.6475 207.457 64.9936L207.367 68.9373H169.185L167.034 61.3188H198.135L196.791 62.8425V60.7811C196.612 58.9885 196.014 57.4051 194.998 56.0307C193.983 54.5967 192.668 53.4913 191.055 52.7145C189.501 51.878 187.768 51.4597 185.856 51.4597C182.928 51.4597 180.449 52.0273 178.417 53.1626C176.385 54.2382 174.832 55.8515 173.756 58.0026C172.741 60.1537 172.233 62.8126 172.233 65.9795C172.233 69.0269 172.86 71.6859 174.115 73.9565C175.429 76.2271 177.282 77.9898 179.672 79.2446C182.062 80.4994 184.84 81.1268 188.007 81.1268C190.218 81.1268 192.25 80.7682 194.102 80.0512C196.014 79.3342 198.046 78.0495 200.197 76.1972L205.574 83.726C203.961 85.2198 202.109 86.5045 200.018 87.58C197.986 88.5958 195.835 89.4025 193.564 90C191.294 90.5975 189.053 90.8963 186.842 90.8963ZM217.31 90V23.6748H228.245V90H217.31Z" fill="black"/>
</svg>
